# xmcd
#
# Track frame offsets: 
#        150
#        13875
#        33853
#        60808
#        81096
#        90183
#        102641
#        132486
#        151795
#        172995
#        188289
#        231841
#
# Disc length: 3248 seconds
#
# Revision: 0
# Processed by: cddbd v1.5.2PL0 Copyright (c) Steve Scherf et al.
# Submitted via: ExactAudioCopy v0.99pb5
#
DISCID=7f0cae0c
DTITLE=The Lionel Young Band - As The Sun Goes Down
DYEAR=1997
DGENRE=Blues
TTITLE0=Huddy Leadbetter - Defense Blues
TTITLE1=Sonny Boy Williamson - One Way Out
TTITLE2=Lionel Young - Wasted Time
TTITLE3=ZZ Hill - You Were Wrong
TTITLE4=Stevie Ray Vaughn - Skuttle Buttin'
TTITLE5=Lionel Young - Funny Bones
TTITLE6=Lionel Young - Brown Cloud over Denver
TTITLE7=Professor Longhair - Walk Your Blues Away
TTITLE8=Lionel Young-Jimi Hendrix - Hey OJ
TTITLE9=Lightin' Hopkins - The Footrace Is On
TTITLE10=Adian Romero - Too Much In Love
TTITLE11=Willie Dixon - We're Ready
EXTD=
EXTT0=
EXTT1=
EXTT2=
EXTT3=
EXTT4=
EXTT5=
EXTT6=
EXTT7=
EXTT8=
EXTT9=
EXTT10=
EXTT11=
PLAYORDER=
